<?xml version="1.0" encoding="UTF-8"?>
<svg xmlns="http://www.w3.org/2000/svg" xmlns:xlink="http://www.w3.org/1999/xlink" width="200px" height="61px" viewBox="0 0 200 61" version="1.1">
<g id="surface1">
<path style=" stroke:none;fill-rule:nonzero;fill:rgb(0%,0%,0%);fill-opacity:1;" d="M 152.046875 0.148438 C 151.789062 0.242188 151.691406 0.320312 151.414062 0.660156 C 150.355469 1.960938 149.269531 4.6875 149.109375 6.433594 C 149.039062 7.203125 148.996094 7.40625 148.84375 7.722656 C 148.664062 8.085938 148.351562 8.425781 147.785156 8.863281 C 145.621094 10.546875 144.503906 11.582031 143.953125 12.417969 C 143.617188 12.929688 143.355469 13.71875 142.976562 15.367188 C 142.648438 16.789062 142.246094 17.980469 141.722656 19.070312 C 140.925781 20.722656 139.894531 21.875 138.457031 22.71875 C 136.824219 23.683594 135.988281 24.332031 134.570312 25.757812 C 132.855469 27.480469 129.628906 31.238281 127.027344 34.542969 C 126.300781 35.46875 125.226562 36.933594 125.109375 37.15625 L 125.054688 37.253906 L 126.976562 37.253906 C 128.035156 37.253906 129.203125 37.269531 129.582031 37.285156 L 130.269531 37.3125 L 130.238281 36.878906 L 130.207031 36.4375 L 130.351562 36.394531 C 130.585938 36.320312 132.609375 35.839844 133.769531 35.582031 C 135.085938 35.289062 136.722656 34.984375 137.691406 34.859375 C 138.648438 34.734375 140.203125 34.714844 140.691406 34.832031 C 141.496094 35.015625 141.9375 35.429688 141.992188 36.046875 C 142.007812 36.226562 141.984375 36.449219 141.917969 36.78125 C 141.859375 37.042969 141.824219 37.265625 141.832031 37.273438 C 141.847656 37.285156 143.203125 37.28125 144.855469 37.269531 L 147.855469 37.242188 L 147.917969 37.125 C 147.949219 37.066406 148.003906 36.859375 148.039062 36.671875 C 148.078125 36.46875 148.132812 36.296875 148.183594 36.253906 C 148.308594 36.125 150.90625 35.371094 152.898438 34.886719 C 157.144531 33.84375 159.109375 33.890625 159.675781 35.046875 C 159.902344 35.5 159.902344 36.113281 159.675781 36.941406 C 159.632812 37.117188 159.59375 37.269531 159.59375 37.285156 C 159.59375 37.300781 161.234375 37.300781 163.246094 37.28125 C 165.253906 37.269531 168.546875 37.242188 170.566406 37.230469 L 174.238281 37.199219 L 173.808594 36.757812 C 173.316406 36.242188 173.039062 35.867188 172.847656 35.457031 C 172.523438 34.761719 172.753906 34.355469 173.609375 34.117188 C 173.921875 34.03125 174.058594 34.023438 174.953125 34.023438 C 176.148438 34.023438 176.980469 34.101562 180.652344 34.605469 C 182.945312 34.921875 183.679688 35.089844 184.390625 35.460938 C 184.789062 35.671875 184.941406 35.851562 184.941406 36.117188 C 184.941406 36.363281 184.894531 36.4375 184.488281 36.851562 L 184.1875 37.167969 L 198.777344 37.167969 L 198.652344 37.039062 C 198.332031 36.703125 196.339844 35.464844 194.496094 34.453125 C 189.925781 31.949219 187.628906 30.238281 180.175781 23.800781 C 179.671875 23.371094 179.242188 23.03125 179.113281 22.976562 C 178.839844 22.851562 178.226562 22.777344 177.390625 22.777344 C 176.804688 22.777344 176.738281 22.789062 176.207031 22.941406 C 175.460938 23.152344 175.0625 23.164062 174.730469 22.980469 C 174.359375 22.773438 173.542969 21.957031 172.816406 21.0625 C 172.445312 20.609375 171.898438 19.988281 171.601562 19.691406 C 170.804688 18.898438 170.292969 18.601562 169.441406 18.453125 C 169.128906 18.398438 169.03125 18.363281 168.835938 18.210938 C 168.578125 18.019531 168.261719 17.636719 168.128906 17.363281 C 168.050781 17.203125 168.042969 17.097656 168.042969 16.097656 C 168.042969 14.84375 167.984375 14.234375 167.761719 13.367188 C 167.40625 11.941406 166.800781 10.886719 165.160156 8.828125 C 163.976562 7.347656 162.789062 6.101562 161.261719 4.757812 C 159.328125 3.050781 157.304688 1.464844 156.636719 1.125 C 155.46875 0.535156 152.621094 -0.0703125 152.046875 0.148438 Z M 152.949219 1.917969 C 154.421875 2.925781 155.546875 4.226562 156.398438 5.902344 C 156.765625 6.621094 156.980469 7.117188 157.199219 7.757812 L 157.347656 8.195312 L 157.203125 8.300781 C 156.621094 8.742188 156.132812 9.371094 155.839844 10.054688 C 155.417969 11.039062 155.230469 12.140625 155.066406 14.605469 C 154.925781 16.679688 154.792969 17.648438 154.476562 18.867188 C 153.878906 21.1875 152.847656 23.476562 151.621094 25.214844 C 151.058594 26.015625 150.625 26.523438 149.890625 27.257812 C 148.828125 28.320312 147.714844 29.144531 146.476562 29.792969 C 145.773438 30.15625 144.960938 30.515625 144.835938 30.515625 C 144.789062 30.515625 144.488281 30.351562 144.171875 30.148438 C 142.421875 29.007812 140.140625 27.925781 137.042969 26.757812 C 136.613281 26.59375 136.246094 26.449219 136.226562 26.429688 C 136.179688 26.386719 137.570312 25.035156 138.125 24.59375 C 138.597656 24.207031 138.945312 23.980469 139.488281 23.679688 C 140.488281 23.132812 141.488281 22.175781 142.203125 21.082031 C 142.726562 20.277344 143.011719 19.671875 143.679688 17.933594 C 144.3125 16.289062 144.527344 15.574219 144.730469 14.476562 C 144.949219 13.285156 145.269531 12.679688 146.179688 11.742188 C 146.839844 11.0625 147.371094 10.617188 147.96875 10.242188 C 149.117188 9.511719 149.398438 9.257812 149.707031 8.660156 C 150.007812 8.082031 150.105469 7.675781 150.472656 5.585938 C 150.582031 4.964844 150.722656 4.269531 150.78125 4.046875 C 150.917969 3.511719 151.214844 2.921875 151.558594 2.488281 C 151.847656 2.117188 152.367188 1.652344 152.488281 1.652344 C 152.527344 1.652344 152.730469 1.769531 152.949219 1.917969 Z M 152.949219 1.917969 "/>
<path style=" stroke:none;fill-rule:nonzero;fill:rgb(0%,0%,0%);fill-opacity:1;" d="M 6.425781 39.058594 C 6.425781 39.070312 5.054688 43.796875 3.371094 49.5625 C 1.691406 55.328125 0.320312 60.050781 0.320312 60.0625 C 0.320312 60.105469 15.878906 60.078125 16.332031 60.03125 C 16.972656 59.96875 17.582031 59.84375 18.128906 59.660156 C 19.496094 59.203125 20.382812 58.363281 21.125 56.824219 C 21.414062 56.21875 21.796875 55.257812 21.941406 54.777344 C 21.992188 54.59375 22.070312 54.339844 22.121094 54.210938 C 22.167969 54.078125 22.265625 53.75 22.332031 53.476562 C 22.671875 52.15625 22.480469 51.023438 21.753906 50.042969 L 21.578125 49.800781 L 21.726562 49.691406 C 22.066406 49.449219 22.722656 48.71875 23.039062 48.246094 C 23.382812 47.726562 23.816406 46.863281 23.972656 46.386719 C 24.207031 45.664062 24.257812 44.640625 24.128906 43.289062 C 23.992188 41.882812 23.75 41.03125 23.261719 40.296875 C 23.015625 39.925781 22.492188 39.429688 22.195312 39.285156 C 21.660156 39.027344 22.140625 39.039062 13.9375 39.039062 C 9.808594 39.039062 6.425781 39.046875 6.425781 39.058594 Z M 17.746094 44.800781 C 18.070312 45.253906 18.140625 45.445312 18.0625 45.703125 C 17.992188 45.9375 17.636719 46.652344 17.46875 46.894531 L 17.339844 47.078125 L 12.242188 47.078125 L 10.820312 48.652344 C 10.039062 49.519531 9.351562 50.273438 9.300781 50.335938 C 9.242188 50.398438 9.210938 50.417969 9.222656 50.382812 C 9.230469 50.347656 9.582031 49.125 10.003906 47.667969 C 10.421875 46.207031 10.804688 44.882812 10.851562 44.71875 L 10.9375 44.429688 L 14.21875 44.4375 L 17.496094 44.449219 Z M 16.082031 52.414062 C 16.070312 52.757812 16.046875 52.847656 15.851562 53.308594 C 15.613281 53.878906 15.566406 53.929688 14.792969 54.464844 L 14.46875 54.6875 L 11.230469 54.6875 C 9.449219 54.6875 7.988281 54.675781 7.988281 54.652344 C 7.988281 54.636719 8.164062 54.039062 8.386719 53.332031 L 8.789062 52.035156 L 16.097656 52.035156 Z M 16.082031 52.414062 "/>
<path style=" stroke:none;fill-rule:nonzero;fill:rgb(0%,0%,0%);fill-opacity:1;" d="M 28.246094 39.113281 C 27.933594 40.171875 22.15625 60.035156 22.15625 60.054688 C 22.15625 60.066406 25.300781 60.078125 29.148438 60.078125 L 36.140625 60.078125 L 36.503906 59.640625 C 37.230469 58.757812 38.773438 56.53125 39.527344 55.269531 L 39.832031 54.753906 L 34.808594 54.738281 C 31.355469 54.734375 29.78125 54.71875 29.78125 54.683594 C 29.78125 54.664062 30.796875 51.175781 32.035156 46.9375 C 33.277344 42.699219 34.300781 39.191406 34.320312 39.132812 L 34.339844 39.039062 L 31.304688 39.039062 C 28.453125 39.039062 28.269531 39.042969 28.246094 39.113281 Z M 28.246094 39.113281 "/>
<path style=" stroke:none;fill-rule:nonzero;fill:rgb(0%,0%,0%);fill-opacity:1;" d="M 52.386719 39.171875 C 51.921875 39.480469 50.929688 40.636719 50.640625 41.210938 C 50.570312 41.34375 47.960938 45.550781 44.839844 50.558594 C 40.53125 57.460938 39.144531 59.710938 39.109375 59.871094 L 39.066406 60.078125 L 52.535156 60.078125 L 52.726562 59.878906 C 53.269531 59.316406 54.429688 57.585938 55.144531 56.269531 C 55.457031 55.703125 55.472656 55.683594 55.496094 55.824219 C 55.527344 56.003906 56.125 60.027344 56.125 60.058594 C 56.125 60.070312 57.402344 60.078125 58.964844 60.078125 C 60.523438 60.078125 61.800781 60.066406 61.800781 60.042969 C 61.800781 60.027344 61.320312 56.160156 60.738281 51.449219 C 59.777344 43.679688 59.660156 42.804688 59.484375 42.015625 C 59.179688 40.628906 58.9375 39.898438 58.632812 39.421875 C 58.371094 39.007812 58.617188 39.039062 55.40625 39.039062 L 52.585938 39.039062 Z M 54.914062 50.113281 C 55.214844 52.640625 55.453125 54.722656 55.445312 54.738281 C 55.4375 54.761719 53.992188 54.777344 52.242188 54.777344 L 49.058594 54.777344 L 49.070312 54.542969 C 49.085938 54.324219 49.226562 54.078125 51.707031 49.898438 C 53.148438 47.46875 54.335938 45.488281 54.347656 45.496094 C 54.359375 45.507812 54.613281 47.585938 54.914062 50.113281 Z M 54.914062 50.113281 "/>
<path style=" stroke:none;fill-rule:nonzero;fill:rgb(0%,0%,0%);fill-opacity:1;" d="M 70.292969 39.066406 C 69.589844 39.175781 68.871094 39.4375 68.269531 39.796875 C 65.566406 41.394531 63.46875 44.839844 62.878906 48.652344 C 62.75 49.480469 62.738281 51.394531 62.859375 52.277344 C 63.019531 53.472656 63.253906 54.300781 63.683594 55.191406 C 64.121094 56.09375 64.578125 56.738281 65.242188 57.40625 C 65.933594 58.097656 66.425781 58.453125 67.304688 58.894531 C 68.117188 59.308594 68.847656 59.550781 69.839844 59.753906 C 71.226562 60.03125 71.460938 60.050781 73.722656 60.070312 L 75.777344 60.085938 L 76.214844 59.625 C 76.699219 59.121094 77.160156 58.566406 77.558594 57.992188 C 77.882812 57.539062 78.792969 56.082031 79.230469 55.320312 L 79.554688 54.753906 L 71.613281 54.707031 L 71.332031 54.570312 C 70.777344 54.296875 70.152344 53.664062 69.632812 52.863281 C 68.910156 51.734375 68.53125 50.472656 68.648438 49.539062 C 68.707031 49.035156 68.878906 48.300781 69.039062 47.835938 C 69.222656 47.296875 69.675781 46.398438 70 45.90625 C 70.378906 45.335938 70.972656 44.746094 71.355469 44.554688 L 71.660156 44.40625 L 75.933594 44.394531 L 80.210938 44.386719 L 80.601562 43.957031 C 81.566406 42.914062 82.726562 41.304688 83.867188 39.4375 L 84.117188 39.039062 L 77.261719 39.042969 C 73.488281 39.046875 70.355469 39.054688 70.292969 39.066406 Z M 70.292969 39.066406 "/>
<path style=" stroke:none;fill-rule:nonzero;fill:rgb(0%,0%,0%);fill-opacity:1;" d="M 85.703125 39.113281 C 85.265625 40.609375 79.609375 60.035156 79.609375 60.054688 C 79.609375 60.066406 80.984375 60.078125 82.664062 60.078125 L 85.714844 60.078125 L 85.753906 59.933594 C 86.019531 58.980469 88.472656 50.6875 88.488281 50.691406 C 88.5 50.691406 89.886719 52.804688 91.570312 55.382812 L 94.621094 60.074219 L 98.039062 60.078125 C 99.917969 60.078125 101.449219 60.0625 101.441406 60.042969 C 101.433594 60.023438 100.074219 57.675781 98.421875 54.828125 C 96.773438 51.980469 95.417969 49.625 95.40625 49.59375 C 95.394531 49.5625 97.847656 47.179688 100.855469 44.296875 L 106.316406 39.058594 L 102.929688 39.046875 L 99.542969 39.039062 L 94.332031 43.734375 C 91.46875 46.308594 89.121094 48.417969 89.113281 48.410156 C 89.101562 48.40625 89.691406 46.339844 90.421875 43.824219 C 91.148438 41.304688 91.753906 39.199219 91.765625 39.144531 L 91.792969 39.039062 L 88.761719 39.039062 C 85.90625 39.039062 85.722656 39.042969 85.703125 39.113281 Z M 85.703125 39.113281 "/>
<path style=" stroke:none;fill-rule:nonzero;fill:rgb(0%,0%,0%);fill-opacity:1;" d="M 124.519531 39.132812 C 124.109375 39.34375 123.042969 40.585938 122.695312 41.238281 C 122.609375 41.402344 119.988281 45.625 116.871094 50.621094 C 112.484375 57.65625 111.199219 59.753906 111.175781 59.894531 L 111.144531 60.078125 L 124.585938 60.078125 L 124.757812 59.921875 C 124.988281 59.710938 125.480469 59.046875 126.121094 58.078125 C 126.65625 57.273438 127.421875 55.972656 127.472656 55.78125 C 127.488281 55.730469 127.507812 55.6875 127.527344 55.6875 C 127.539062 55.6875 127.699219 56.667969 127.878906 57.875 L 128.203125 60.058594 L 131.03125 60.070312 L 133.855469 60.078125 L 133.855469 59.976562 C 133.855469 59.65625 131.761719 42.9375 131.664062 42.492188 C 131.214844 40.398438 130.90625 39.535156 130.492188 39.171875 L 130.34375 39.039062 L 127.519531 39.039062 C 124.734375 39.042969 124.6875 39.042969 124.519531 39.132812 Z M 126.988281 50.144531 C 127.289062 52.652344 127.53125 54.722656 127.53125 54.738281 C 127.53125 54.761719 126.085938 54.777344 124.324219 54.777344 L 121.117188 54.777344 L 121.117188 54.578125 C 121.117188 54.402344 121.316406 54.046875 123.679688 50.070312 C 125.085938 47.699219 126.285156 45.683594 126.332031 45.601562 C 126.390625 45.507812 126.429688 45.476562 126.433594 45.515625 C 126.445312 45.550781 126.691406 47.632812 126.988281 50.144531 Z M 126.988281 50.144531 "/>
<path style=" stroke:none;fill-rule:nonzero;fill:rgb(0%,0%,0%);fill-opacity:1;" d="M 141.335938 39.394531 C 141.003906 40.492188 135.328125 59.996094 135.328125 60.035156 C 135.328125 60.066406 137.640625 60.078125 142.300781 60.078125 L 149.273438 60.078125 L 149.515625 59.8125 C 149.972656 59.320312 151.054688 57.824219 151.953125 56.429688 C 152.433594 55.691406 152.964844 54.824219 152.964844 54.769531 C 152.964844 54.75 150.726562 54.726562 147.949219 54.722656 L 142.925781 54.707031 L 145.191406 46.96875 C 146.441406 42.714844 147.464844 39.191406 147.484375 39.132812 L 147.503906 39.039062 L 141.445312 39.039062 Z M 141.335938 39.394531 "/>
<path style=" stroke:none;fill-rule:nonzero;fill:rgb(0%,0%,0%);fill-opacity:1;" d="M 159.191406 39.066406 C 159.175781 39.089844 157.800781 43.796875 156.132812 49.539062 C 154.460938 55.273438 153.082031 59.996094 153.074219 60.027344 C 153.054688 60.070312 153.671875 60.078125 156.113281 60.070312 L 159.175781 60.058594 L 159.949219 57.40625 C 160.371094 55.945312 160.867188 54.242188 161.050781 53.613281 L 161.382812 52.472656 L 170.964844 52.449219 L 171.398438 52.328125 C 173.484375 51.757812 175.183594 50.28125 176.210938 48.148438 C 176.65625 47.214844 176.84375 46.515625 176.925781 45.46875 C 176.988281 44.570312 176.878906 43.167969 176.667969 42.28125 C 176.265625 40.589844 175.332031 39.316406 174.320312 39.085938 C 174.097656 39.035156 159.222656 39.019531 159.191406 39.066406 Z M 170.304688 44.546875 C 170.460938 44.714844 170.761719 45.191406 170.816406 45.363281 C 170.851562 45.472656 170.851562 45.558594 170.816406 45.699219 C 170.757812 45.921875 170.382812 46.660156 170.203125 46.902344 L 170.078125 47.078125 L 164.988281 47.078125 L 163.496094 48.734375 C 162.679688 49.640625 161.996094 50.378906 161.988281 50.367188 C 161.980469 50.359375 162.359375 49.019531 162.832031 47.390625 L 163.683594 44.429688 L 170.191406 44.429688 Z M 170.304688 44.546875 "/>
<path style=" stroke:none;fill-rule:nonzero;fill:rgb(0%,0%,0%);fill-opacity:1;" d="M 182.917969 39.101562 C 181.207031 39.570312 179.019531 42.742188 178.636719 45.316406 C 178.445312 46.628906 178.742188 48.25 179.425781 49.617188 C 179.761719 50.296875 180.042969 50.691406 180.496094 51.148438 C 180.945312 51.597656 181.265625 51.820312 181.730469 52.011719 L 182.058594 52.144531 L 185.613281 52.167969 C 187.566406 52.179688 189.199219 52.207031 189.238281 52.222656 C 189.277344 52.246094 189.347656 52.332031 189.390625 52.417969 C 189.460938 52.558594 189.46875 52.699219 189.46875 53.472656 C 189.46875 54.25 189.460938 54.378906 189.390625 54.503906 C 189.234375 54.792969 189.574219 54.777344 183.519531 54.777344 L 178.015625 54.777344 L 177.84375 55 C 177.28125 55.738281 175.542969 58.597656 175.015625 59.65625 L 174.800781 60.078125 L 183.109375 60.078125 L 191.417969 60.074219 L 191.703125 59.976562 C 192.722656 59.632812 193.816406 58.445312 194.578125 56.855469 C 195.378906 55.191406 195.609375 53.746094 195.359375 51.925781 C 195.21875 50.894531 194.996094 50.132812 194.605469 49.320312 C 194.039062 48.152344 193.195312 47.328125 192.324219 47.101562 C 192.109375 47.046875 191.601562 47.039062 188.855469 47.039062 C 185.648438 47.039062 185.628906 47.039062 185.449219 46.945312 C 185.203125 46.820312 185.097656 46.730469 184.851562 46.445312 C 184.671875 46.246094 184.636719 46.175781 184.636719 46.027344 C 184.636719 45.617188 184.945312 44.816406 185.195312 44.582031 L 185.335938 44.449219 L 190.660156 44.4375 L 195.988281 44.429688 L 196.40625 43.914062 C 197.390625 42.707031 198.277344 41.433594 199.148438 39.976562 C 199.414062 39.53125 199.640625 39.140625 199.65625 39.101562 C 199.675781 39.046875 198.707031 39.039062 191.414062 39.042969 C 184.4375 39.042969 183.109375 39.054688 182.917969 39.101562 Z M 182.917969 39.101562 "/>
</g>
</svg>
